<?xml version="1.0" standalone="no"?>
<svg xmlns:xlink="http://www.w3.org/1999/xlink" id="wave" style="transform:rotate(0deg); transition: 0.3s" viewBox="0 0 1440 100" version="1.1" xmlns="http://www.w3.org/2000/svg"><defs><linearGradient id="sw-gradient-0" x1="0" x2="0" y1="1" y2="0"><stop stop-color="rgba(95, 159, 129, 1)" offset="0%"/><stop stop-color="rgba(95, 159, 129, 1)" offset="100%"/></linearGradient></defs><path style="transform:translate(0, 0px); opacity:1" fill="url(#sw-gradient-0)" d="M0,0L30,6.7C60,13,120,27,180,31.7C240,37,300,33,360,26.7C420,20,480,10,540,16.7C600,23,660,47,720,51.7C780,57,840,43,900,41.7C960,40,1020,50,1080,45C1140,40,1200,20,1260,10C1320,0,1380,0,1440,10C1500,20,1560,40,1620,48.3C1680,57,1740,53,1800,46.7C1860,40,1920,30,1980,35C2040,40,2100,60,2160,66.7C2220,73,2280,67,2340,63.3C2400,60,2460,60,2520,63.3C2580,67,2640,73,2700,68.3C2760,63,2820,47,2880,46.7C2940,47,3000,63,3060,60C3120,57,3180,33,3240,31.7C3300,30,3360,50,3420,60C3480,70,3540,70,3600,71.7C3660,73,3720,77,3780,66.7C3840,57,3900,33,3960,20C4020,7,4080,3,4140,10C4200,17,4260,33,4290,41.7L4320,50L4320,100L4290,100C4260,100,4200,100,4140,100C4080,100,4020,100,3960,100C3900,100,3840,100,3780,100C3720,100,3660,100,3600,100C3540,100,3480,100,3420,100C3360,100,3300,100,3240,100C3180,100,3120,100,3060,100C3000,100,2940,100,2880,100C2820,100,2760,100,2700,100C2640,100,2580,100,2520,100C2460,100,2400,100,2340,100C2280,100,2220,100,2160,100C2100,100,2040,100,1980,100C1920,100,1860,100,1800,100C1740,100,1680,100,1620,100C1560,100,1500,100,1440,100C1380,100,1320,100,1260,100C1200,100,1140,100,1080,100C1020,100,960,100,900,100C840,100,780,100,720,100C660,100,600,100,540,100C480,100,420,100,360,100C300,100,240,100,180,100C120,100,60,100,30,100L0,100Z"/></svg>